<svg width="100" height="100" fill="none" xmlns="http://www.w3.org/2000/svg"><g clip-path="url('#clip0_15_539')"><path d="M49.98 2.969c.157.918 3.145 18.457 3.145 25.156 0 10.215-5.43 17.5-13.457 20.43l2.52 46.504C42.324 97.734 40.194 100 37.5 100H25a4.7 4.7 0 0 1-4.688-4.941l2.52-46.504c-8.047-2.93-13.457-10.235-13.457-20.43 0-6.719 2.988-24.238 3.145-25.156.625-3.965 8.847-4.024 9.355.215v27.578c.254.664 2.95.625 3.125 0 .273-4.942 1.543-27.188 1.563-27.696.644-4.062 8.73-4.062 9.355 0 .039.528 1.289 22.754 1.563 27.696.175.625 2.89.664 3.124 0V3.184c.508-4.22 8.75-4.18 9.376-.215Zm23.282 55.8-2.93 36.153C70.098 97.656 72.266 100 75 100h10.938a4.676 4.676 0 0 0 4.687-4.688V4.689A4.689 4.689 0 0 0 85.937 0C69.825 0 42.696 34.863 73.263 58.77Z" fill="#009EDF"/></g><defs><clipPath id="clip0_15_539"><path fill="#fff" d="M0 0h100v100H0z"/></clipPath></defs></svg>