<svg width="100" height="101" fill="none" xmlns="http://www.w3.org/2000/svg"><g clip-path="url('#clip0_15_541')"><path d="M97.222 56.056H83.333v16.666l-5.555-3.698-5.556 3.698V56.056H58.333a2.786 2.786 0 0 0-2.777 2.777v33.334a2.786 2.786 0 0 0 2.777 2.778h38.89A2.786 2.786 0 0 0 100 92.167V58.833a2.786 2.786 0 0 0-2.778-2.777ZM30.556 44.945h38.888a2.786 2.786 0 0 0 2.778-2.778V8.833a2.786 2.786 0 0 0-2.778-2.777H55.556v16.666L50 19.024l-5.556 3.698V6.056H30.556a2.786 2.786 0 0 0-2.778 2.777v33.334a2.786 2.786 0 0 0 2.778 2.778Zm11.11 11.11H27.779v16.667l-5.556-3.698-5.555 3.698V56.056H2.777A2.786 2.786 0 0 0 0 58.833v33.334a2.786 2.786 0 0 0 2.778 2.778h38.889a2.786 2.786 0 0 0 2.777-2.778V58.833a2.786 2.786 0 0 0-2.777-2.777Z" fill="#009EDF"/></g><defs><clipPath id="clip0_15_541"><path fill="#fff" transform="translate(0 .5)" d="M0 0h100v100H0z"/></clipPath></defs></svg>