<svg width="100" height="100" fill="none" xmlns="http://www.w3.org/2000/svg"><g clip-path="url('#clip0_15_556')"><path d="M80.08 40a19.953 19.953 0 0 0-7.256 1.328L60.686 21.771A3.75 3.75 0 0 0 57.5 20h-10a2.5 2.5 0 0 0-2.5 2.5V25a2.5 2.5 0 0 0 2.5 2.5h7.914l2.328 3.75H40v-2.5a2.5 2.5 0 0 0-2.5-2.5H23.835c-2.1 0-3.872 1.719-3.834 3.818a3.75 3.75 0 0 0 3.75 3.682h7.613l-4.597 7.425A19.96 19.96 0 0 0 20.05 40C9.077 39.973.064 48.908 0 59.88-.064 70.982 8.915 80 20 80c9.32 0 17.15-6.374 19.37-15h8.13a3.749 3.749 0 0 0 3.189-1.776L64.12 41.527l2.334 3.76A19.947 19.947 0 0 0 60 60.043c.023 10.755 9.047 19.851 19.802 19.956 11.032.107 20.028-8.72 20.196-19.687.169-11.084-8.833-20.269-19.918-20.312Zm-50.9 11.527a12.474 12.474 0 0 1 3.069 5.973h-6.767l3.698-5.973ZM20 72.5c-6.892 0-12.5-5.608-12.5-12.5S13.108 47.5 20 47.5c.917 0 1.81.102 2.672.29l-7.11 11.486C14.018 61.77 15.815 65 18.75 65h12.703c-1.932 4.41-6.337 7.5-11.453 7.5Zm25.411-15h-5.566a19.96 19.96 0 0 0-6.622-12.504l3.866-6.246h19.93L45.41 57.5Zm33.915 14.982c-6.411-.338-11.57-5.577-11.816-11.993a12.444 12.444 0 0 1 3.02-8.635l6.944 11.186a2.5 2.5 0 0 0 3.442.805l2.124-1.318a2.5 2.5 0 0 0 .806-3.443L76.897 47.89A12.48 12.48 0 0 1 80 47.5c6.893 0 12.5 5.608 12.5 12.5 0 7.116-5.977 12.862-13.174 12.482Z" fill="#009EDF"/></g><defs><clipPath id="clip0_15_556"><path fill="#fff" d="M0 0h100v100H0z"/></clipPath></defs></svg>