<svg width="100" height="101" fill="none" xmlns="http://www.w3.org/2000/svg"><g clip-path="url('#clip0_15_547')"><path d="m91.688 58.368 8.207-36.111a4.167 4.167 0 0 0-4.063-5.09H27.64l-1.591-7.78a4.167 4.167 0 0 0-4.082-3.331h-17.8A4.167 4.167 0 0 0 0 10.222V13a4.167 4.167 0 0 0 4.167 4.167h12.132L28.495 76.79a9.716 9.716 0 0 0-4.884 8.431c0 5.37 4.353 9.723 9.722 9.723 5.37 0 9.723-4.353 9.723-9.723a9.69 9.69 0 0 0-2.921-6.944h36.397a9.691 9.691 0 0 0-2.92 6.944c0 5.37 4.352 9.723 9.721 9.723 5.37 0 9.723-4.353 9.723-9.723a9.722 9.722 0 0 0-5.483-8.75l.958-4.215a4.167 4.167 0 0 0-4.063-5.09h-46.6L36.73 61.61h50.893a4.166 4.166 0 0 0 4.064-3.243Z" fill="#009EDF"/></g><defs><clipPath id="clip0_15_547"><path fill="#fff" transform="translate(0 .5)" d="M0 0h100v100H0z"/></clipPath></defs></svg>