<svg width="100" height="101" fill="none" xmlns="http://www.w3.org/2000/svg"><path d="M97.727 28.195 87.192 11.377a5.197 5.197 0 0 0-4.4-2.435H17.208a5.197 5.197 0 0 0-4.4 2.435L2.273 28.195c-5.439 8.685-.617 20.763 9.545 22.143.73.097 1.477.146 2.224.146 4.805 0 9.059-2.11 11.98-5.373 2.923 3.263 7.192 5.373 11.981 5.373 4.805 0 9.059-2.11 11.98-5.373 2.923 3.263 7.192 5.373 11.981 5.373 4.805 0 9.059-2.11 11.98-5.373 2.939 3.263 7.192 5.373 11.981 5.373.763 0 1.494-.049 2.224-.146 10.195-1.364 15.033-13.442 9.578-22.143Zm-11.77 27.5c-1.623 0-3.23-.244-4.788-.617v16.201H18.83V55.078c-1.558.357-3.165.617-4.789.617a21.9 21.9 0 0 1-2.922-.195 20.42 20.42 0 0 1-2.662-.584v31.948a5.19 5.19 0 0 0 5.194 5.194H86.38a5.19 5.19 0 0 0 5.195-5.194V54.916c-.877.26-1.754.47-2.663.584-.99.13-1.964.195-2.954.195Z" fill="#009EDF"/></svg>