<svg width="65" height="64" fill="none" xmlns="http://www.w3.org/2000/svg"><path d="M47.2 16.66A20.85 20.85 0 0 0 32.84 11c-9.682.008-18.04 6.647-20.349 15.856A1.504 1.504 0 0 1 11.036 28H3.872a1.5 1.5 0 0 1-1.476-1.772C5.101 11.865 17.711 1 32.86 1a30.895 30.895 0 0 1 21.415 8.586l4.464-4.465c1.89-1.89 5.121-.551 5.121 2.122V24a3 3 0 0 1-3 3H44.102c-2.673 0-4.011-3.231-2.121-5.121l5.218-5.219ZM4.86 37h16.757c2.672 0 4.011 3.231 2.121 5.121l-5.219 5.22A20.85 20.85 0 0 0 32.88 53c9.677-.01 18.04-6.644 20.348-15.857A1.504 1.504 0 0 1 54.684 36h7.163a1.5 1.5 0 0 1 1.475 1.772C60.618 52.135 48.008 63 32.86 63a30.895 30.895 0 0 1-21.414-8.586L6.981 58.88c-1.89 1.89-5.122.551-5.122-2.122V40a3 3 0 0 1 3-3Z" fill="#009EDF"/></svg>