<svg width="100" height="100" fill="none" xmlns="http://www.w3.org/2000/svg"><g clip-path="url('#clip0_15_545')"><path d="m40.073 43.87 13.552 17.06s-2.594 15.993-11.964 23.456C32.29 91.852 0 89.717 0 89.717s.594-3.615 1.719-8.66L16.503 63.53c.62-.735-.136-1.816-1.039-1.485l-9.437 3.452c2.256-6.51 5.112-12.506 8.53-15.23 9.371-7.462 25.516-6.397 25.516-6.397Zm59.385-29.022-3.103-3.906a2.49 2.49 0 0 0-3.502-.4L56.528 38.323l-5.334-6.714a1.719 1.719 0 0 0-2.905.346l-3.958 8.523 13.552 17.06 9.187-1.946a1.718 1.718 0 0 0 .99-2.75l-5.326-6.706L99.06 18.355a2.496 2.496 0 0 0 .399-3.507Z" fill="#009EDF"/></g><defs><clipPath id="clip0_15_545"><path fill="#fff" d="M0 0h100v100H0z"/></clipPath></defs></svg>