<svg width="100" height="100" fill="none" xmlns="http://www.w3.org/2000/svg"><g clip-path="url('#clip0_15_551')"><path d="M35 40c-5.516 0-10 4.484-10 10s4.484 10 10 10 10-4.484 10-10-4.484-10-10-10Zm62.5 35H59.469C65.953 68.64 70 59.797 70 50c0-19.328-15.672-35-35-35S0 30.672 0 50s15.672 35 35 35h62.5c1.375 0 2.5-1.125 2.5-2.5v-5c0-1.375-1.125-2.5-2.5-2.5ZM35 65c-8.281 0-15-6.719-15-15 0-8.281 6.719-15 15-15 8.281 0 15 6.719 15 15 0 8.281-6.719 15-15 15Z" fill="#009EDF"/></g><defs><clipPath id="clip0_15_551"><path fill="#fff" d="M0 0h100v100H0z"/></clipPath></defs></svg>