<svg width="100" height="100" fill="none" xmlns="http://www.w3.org/2000/svg"><g clip-path="url('#clip0_15_558')"><path d="M97.5 75H59.616c-.116 3.095-2.299 5-5.116 5H45c-2.92 0-5.16-2.73-5.12-5H2.5A2.507 2.507 0 0 0 0 77.5V80c0 5.5 4.5 10 10 10h80c5.5 0 10-4.5 10-10v-2.5c0-1.375-1.125-2.5-2.5-2.5ZM90 17.5c0-4.125-3.375-7.5-7.5-7.5h-65c-4.125 0-7.5 3.375-7.5 7.5V70h80V17.5ZM80 60H20V20h60v40Z" fill="#009EDF"/></g><defs><clipPath id="clip0_15_558"><path fill="#fff" d="M0 0h100v100H0z"/></clipPath></defs></svg>