<svg width="100" height="100" fill="none" xmlns="http://www.w3.org/2000/svg"><g clip-path="url('#clip0_15_543')"><path d="M97.871 77.285 75 54.415c-4.512-4.513-11.25-5.392-16.68-2.716L37.5 30.88V18.75L12.5 0 0 12.5l18.75 25h12.129l20.82 20.82c-2.656 5.43-1.797 12.168 2.715 16.68l22.871 22.871c2.852 2.852 7.461 2.852 10.293 0l10.293-10.293c2.832-2.851 2.832-7.46 0-10.293Zm-33.086-33.34c5.528 0 10.723 2.149 14.63 6.055l3.788 3.79c3.086-1.349 6.016-3.224 8.555-5.763 7.246-7.246 9.707-17.441 7.402-26.699-.43-1.758-2.637-2.363-3.926-1.074l-14.53 14.531-13.263-2.207-2.207-13.262 14.532-14.53c1.289-1.29.664-3.497-1.114-3.946-9.258-2.285-19.453.176-26.68 7.402-5.566 5.567-8.183 12.91-8.046 20.235L59.96 44.512a21.277 21.277 0 0 1 4.824-.567ZM44.492 59.961 33.418 48.887 3.652 78.672c-4.882 4.883-4.882 12.793 0 17.676 4.883 4.882 12.793 4.882 17.676 0l24.14-24.141c-1.484-3.887-1.933-8.125-.976-12.246ZM12.5 92.188A4.701 4.701 0 0 1 7.812 87.5a4.676 4.676 0 0 1 4.688-4.688 4.676 4.676 0 0 1 4.688 4.688 4.689 4.689 0 0 1-4.688 4.688Z" fill="#009EDF"/></g><defs><clipPath id="clip0_15_543"><path fill="#fff" d="M0 0h100v100H0z"/></clipPath></defs></svg>