<svg width="100" height="100" fill="none" xmlns="http://www.w3.org/2000/svg"><g clip-path="url('#clip0_15_554')"><path d="M32.5 60h60c1.375 0 2.5-1.125 2.5-2.5v-40c0-1.375-1.125-2.5-2.5-2.5H70v20l-7.5-5-7.5 5V15H32.5a2.507 2.507 0 0 0-2.5 2.5v40c0 1.375 1.125 2.5 2.5 2.5Zm65 10H20V12.5c0-1.375-1.125-2.5-2.5-2.5h-15A2.507 2.507 0 0 0 0 12.5v5C0 18.875 1.125 20 2.5 20H10v57.5c0 1.375 1.125 2.5 2.5 2.5h12.953A7.387 7.387 0 0 0 25 82.5c0 4.14 3.36 7.5 7.5 7.5 4.14 0 7.5-3.36 7.5-7.5 0-.875-.188-1.719-.453-2.5h30.922a7.385 7.385 0 0 0-.453 2.5c0 4.14 3.359 7.5 7.5 7.5 4.14 0 7.5-3.36 7.5-7.5 0-.875-.188-1.719-.454-2.5H97.5c1.375 0 2.5-1.125 2.5-2.5v-5c0-1.375-1.125-2.5-2.5-2.5Z" fill="#009EDF"/></g><defs><clipPath id="clip0_15_554"><path fill="#fff" d="M0 0h100v100H0z"/></clipPath></defs></svg>