<svg width="65" height="64" fill="none" xmlns="http://www.w3.org/2000/svg"><g clip-path="url('#clip0_19_247')"><path d="M10.03 28.8c3.53 0 6.4-2.87 6.4-6.4 0-3.53-2.87-6.4-6.4-6.4-3.53 0-6.4 2.87-6.4 6.4 0 3.53 2.87 6.4 6.4 6.4Zm44.8 0c3.53 0 6.4-2.87 6.4-6.4 0-3.53-2.87-6.4-6.4-6.4-3.53 0-6.4 2.87-6.4 6.4 0 3.53 2.87 6.4 6.4 6.4Zm3.2 3.2h-6.4c-1.76 0-3.35.71-4.51 1.86 4.03 2.21 6.89 6.2 7.51 10.94h6.6c1.77 0 3.2-1.43 3.2-3.2v-3.2c0-3.53-2.87-6.4-6.4-6.4Zm-25.6 0c6.19 0 11.2-5.01 11.2-11.2 0-6.19-5.01-11.2-11.2-11.2-6.19 0-11.2 5.01-11.2 11.2 0 6.19 5.01 11.2 11.2 11.2Zm7.68 3.2h-.83c-2.08 1-4.39 1.6-6.85 1.6s-4.76-.6-6.85-1.6h-.83c-6.36 0-11.52 5.16-11.52 11.52v2.88c0 2.65 2.15 4.8 4.8 4.8h28.8c2.65 0 4.8-2.15 4.8-4.8v-2.88c0-6.36-5.16-11.52-11.52-11.52Zm-22.37-1.34A6.381 6.381 0 0 0 13.23 32h-6.4c-3.53 0-6.4 2.87-6.4 6.4v3.2c0 1.77 1.43 3.2 3.2 3.2h6.59c.63-4.74 3.49-8.73 7.52-10.94Z" fill="#009EDF"/></g><defs><clipPath id="clip0_19_247"><path fill="#fff" transform="translate(.43)" d="M0 0h64v64H0z"/></clipPath></defs></svg>