<svg width="100" height="100" fill="none" xmlns="http://www.w3.org/2000/svg"><g clip-path="url('#clip0_15_537')"><path d="m99.824 73.984-5.215-31.25a6.252 6.252 0 0 0-6.171-5.215H40.624v-12.5h18.75a3.134 3.134 0 0 0 3.125-3.124V3.125A3.134 3.134 0 0 0 59.375 0h-50A3.134 3.134 0 0 0 6.25 3.125v18.75A3.134 3.134 0 0 0 9.375 25h18.75v12.5H11.543a6.267 6.267 0 0 0-6.172 5.215L.156 73.965a12.117 12.117 0 0 0-.176 2.05V93.75A6.243 6.243 0 0 0 6.23 100h87.5a6.243 6.243 0 0 0 6.25-6.25V76.035a10.37 10.37 0 0 0-.156-2.05ZM54.688 48.438a3.134 3.134 0 0 1 3.124-3.126h3.126a3.134 3.134 0 0 1 3.124 3.126v3.124a3.134 3.134 0 0 1-3.124 3.126h-3.126a3.134 3.134 0 0 1-3.124-3.126v-3.124Zm-6.25 12.5h3.124a3.134 3.134 0 0 1 3.126 3.124v3.126a3.134 3.134 0 0 1-3.126 3.124h-3.124a3.134 3.134 0 0 1-3.126-3.124v-3.126a3.134 3.134 0 0 1 3.126-3.124Zm-6.25-15.626a3.134 3.134 0 0 1 3.124 3.126v3.124a3.134 3.134 0 0 1-3.124 3.126h-3.126a3.134 3.134 0 0 1-3.124-3.126v-3.124a3.134 3.134 0 0 1 3.124-3.126h3.126ZM15.625 15.625v-6.25h37.5v6.25h-37.5Zm7.813 39.063h-3.125a3.134 3.134 0 0 1-3.125-3.126v-3.124a3.134 3.134 0 0 1 3.125-3.126h3.125a3.134 3.134 0 0 1 3.125 3.126v3.124a3.134 3.134 0 0 1-3.125 3.126Zm3.125 12.5v-3.126a3.134 3.134 0 0 1 3.125-3.124h3.125a3.134 3.134 0 0 1 3.124 3.124v3.126a3.134 3.134 0 0 1-3.124 3.124h-3.126a3.134 3.134 0 0 1-3.125-3.124ZM68.75 89.061c0 .86-.703 1.563-1.563 1.563H32.813c-.86 0-1.563-.703-1.563-1.563v-3.124c0-.86.703-1.563 1.563-1.563h34.374c.86 0 1.563.703 1.563 1.563v3.124Zm4.688-21.874a3.134 3.134 0 0 1-3.126 3.124h-3.124a3.134 3.134 0 0 1-3.126-3.124v-3.126a3.134 3.134 0 0 1 3.126-3.124h3.124a3.134 3.134 0 0 1 3.126 3.124v3.126Zm9.374-15.626a3.134 3.134 0 0 1-3.124 3.126h-3.126a3.134 3.134 0 0 1-3.124-3.126v-3.124a3.134 3.134 0 0 1 3.124-3.126h3.126a3.134 3.134 0 0 1 3.124 3.126v3.124Z" fill="#009EDF"/></g><defs><clipPath id="clip0_15_537"><path fill="#fff" d="M0 0h100v100H0z"/></clipPath></defs></svg>