<svg width="100" height="89" fill="none" xmlns="http://www.w3.org/2000/svg"><path d="m99.185 33.725-3.929-3.928a2.778 2.778 0 0 0-3.928 0l-1.964 1.963-5.017-5.017c.977-3.7.062-7.795-2.839-10.696L73.652 8.19c-10.847-10.848-28.436-10.848-39.285 0l15.714 7.856v3.255c0 2.946 1.17 5.772 3.255 7.856l8.532 8.53c2.9 2.902 6.996 3.817 10.696 2.84l5.017 5.017-1.963 1.963a2.778 2.778 0 0 0 0 3.93l3.928 3.928a2.778 2.778 0 0 0 3.93 0l15.713-15.714a2.78 2.78 0 0 0-.004-3.927Zm-49.778-2.639c-.642-.642-1.187-1.352-1.71-2.074L3.41 70.36C-1.03 74.507-1.15 81.505 3.144 85.8c4.293 4.295 11.293 4.175 15.439-.266l41.342-44.283c-.688-.505-1.372-1.019-1.986-1.633l-8.532-8.532Z" fill="#009EDF"/></svg>